<mxfile host="app.diagrams.net" modified="2020-08-11T06:47:20.797Z" agent="5.0 (Windows NT 10.0; Win64; x64) AppleWebKit/537.36 (KHTML, like Gecko) Chrome/84.0.4147.105 Safari/537.36" etag="B43KmMRzKUdVoWgWWRKv" version="13.6.2" type="github">
  <diagram id="OqacN9hPDsrWnDZxKTWF" name="Page-1">
    <mxGraphModel dx="1038" dy="499" grid="1" gridSize="10" guides="1" tooltips="1" connect="1" arrows="1" fold="1" page="1" pageScale="1" pageWidth="850" pageHeight="1100" math="0" shadow="0">
      <root>
        <mxCell id="0" />
        <mxCell id="1" parent="0" />
        <mxCell id="SxcsM_80hhxCfTXgbYMa-65" value="Office" style="swimlane;whiteSpace=wrap;startSize=23;" parent="1" vertex="1">
          <mxGeometry x="80" y="20" width="280" height="570" as="geometry" />
        </mxCell>
        <mxCell id="r6qwCy5xgTZqFK5i09CB-8" style="edgeStyle=orthogonalEdgeStyle;rounded=0;orthogonalLoop=1;jettySize=auto;html=1;exitX=0.5;exitY=1;exitDx=0;exitDy=0;entryX=0.5;entryY=0;entryDx=0;entryDy=0;entryPerimeter=0;" edge="1" parent="SxcsM_80hhxCfTXgbYMa-65" source="SxcsM_80hhxCfTXgbYMa-68" target="r6qwCy5xgTZqFK5i09CB-5">
          <mxGeometry relative="1" as="geometry" />
        </mxCell>
        <mxCell id="SxcsM_80hhxCfTXgbYMa-68" value="ลูกค้าเดินดูห้อง" style="" parent="SxcsM_80hhxCfTXgbYMa-65" vertex="1">
          <mxGeometry x="80" y="140" width="110" height="50" as="geometry" />
        </mxCell>
        <mxCell id="r6qwCy5xgTZqFK5i09CB-7" style="edgeStyle=orthogonalEdgeStyle;rounded=0;orthogonalLoop=1;jettySize=auto;html=1;exitX=0.5;exitY=1;exitDx=0;exitDy=0;entryX=0.5;entryY=0;entryDx=0;entryDy=0;" edge="1" parent="SxcsM_80hhxCfTXgbYMa-65" source="SxcsM_80hhxCfTXgbYMa-103" target="SxcsM_80hhxCfTXgbYMa-68">
          <mxGeometry relative="1" as="geometry" />
        </mxCell>
        <mxCell id="SxcsM_80hhxCfTXgbYMa-103" value="ติดต่อขอข้อมูล" style="" parent="SxcsM_80hhxCfTXgbYMa-65" vertex="1">
          <mxGeometry x="80" y="60" width="110" height="50" as="geometry" />
        </mxCell>
        <mxCell id="SxcsM_80hhxCfTXgbYMa-97" value="" style="ellipse;shape=endState;fillColor=#000000;strokeColor=#ff0000" parent="SxcsM_80hhxCfTXgbYMa-65" vertex="1">
          <mxGeometry x="7" y="255" width="30" height="30" as="geometry" />
        </mxCell>
        <mxCell id="r6qwCy5xgTZqFK5i09CB-13" style="edgeStyle=orthogonalEdgeStyle;rounded=0;orthogonalLoop=1;jettySize=auto;html=1;exitX=0;exitY=0.5;exitDx=0;exitDy=0;exitPerimeter=0;entryX=1;entryY=0.5;entryDx=0;entryDy=0;" edge="1" parent="SxcsM_80hhxCfTXgbYMa-65" source="r6qwCy5xgTZqFK5i09CB-5" target="SxcsM_80hhxCfTXgbYMa-97">
          <mxGeometry relative="1" as="geometry" />
        </mxCell>
        <mxCell id="r6qwCy5xgTZqFK5i09CB-5" value="ตัดสินใจ?" style="strokeWidth=2;html=1;shape=mxgraph.flowchart.decision;whiteSpace=wrap;" vertex="1" parent="SxcsM_80hhxCfTXgbYMa-65">
          <mxGeometry x="80" y="220" width="110" height="100" as="geometry" />
        </mxCell>
        <mxCell id="r6qwCy5xgTZqFK5i09CB-10" value="ไม่สนใจ" style="text;html=1;strokeColor=none;fillColor=none;align=center;verticalAlign=middle;whiteSpace=wrap;rounded=0;" vertex="1" parent="SxcsM_80hhxCfTXgbYMa-65">
          <mxGeometry x="35" y="250" width="50" height="20" as="geometry" />
        </mxCell>
        <mxCell id="r6qwCy5xgTZqFK5i09CB-18" value="ตกลงเข้าพัก" style="text;html=1;strokeColor=none;fillColor=none;align=center;verticalAlign=middle;whiteSpace=wrap;rounded=0;" vertex="1" parent="SxcsM_80hhxCfTXgbYMa-65">
          <mxGeometry x="200" y="240" width="40" height="20" as="geometry" />
        </mxCell>
        <mxCell id="r6qwCy5xgTZqFK5i09CB-25" style="edgeStyle=orthogonalEdgeStyle;rounded=0;orthogonalLoop=1;jettySize=auto;html=1;exitX=0.5;exitY=1;exitDx=0;exitDy=0;entryX=0.5;entryY=0;entryDx=0;entryDy=0;" edge="1" parent="SxcsM_80hhxCfTXgbYMa-65" source="r6qwCy5xgTZqFK5i09CB-21" target="r6qwCy5xgTZqFK5i09CB-24">
          <mxGeometry relative="1" as="geometry" />
        </mxCell>
        <mxCell id="r6qwCy5xgTZqFK5i09CB-21" value="ตรวจสัญญาและ&#xa;เซ็นต์สัญญา" style="" vertex="1" parent="SxcsM_80hhxCfTXgbYMa-65">
          <mxGeometry x="80" y="340" width="110" height="50" as="geometry" />
        </mxCell>
        <mxCell id="r6qwCy5xgTZqFK5i09CB-24" value="" style="ellipse;shape=endState;fillColor=#000000;strokeColor=#ff0000" vertex="1" parent="SxcsM_80hhxCfTXgbYMa-65">
          <mxGeometry x="120" y="420" width="30" height="30" as="geometry" />
        </mxCell>
        <mxCell id="r6qwCy5xgTZqFK5i09CB-26" value="สิ้นสุด" style="text;html=1;strokeColor=none;fillColor=none;align=center;verticalAlign=middle;whiteSpace=wrap;rounded=0;" vertex="1" parent="SxcsM_80hhxCfTXgbYMa-65">
          <mxGeometry x="115" y="450" width="40" height="20" as="geometry" />
        </mxCell>
        <mxCell id="r6qwCy5xgTZqFK5i09CB-27" value="สิ้นสุด" style="text;html=1;strokeColor=none;fillColor=none;align=center;verticalAlign=middle;whiteSpace=wrap;rounded=0;" vertex="1" parent="SxcsM_80hhxCfTXgbYMa-65">
          <mxGeometry x="2" y="285" width="40" height="20" as="geometry" />
        </mxCell>
        <mxCell id="SxcsM_80hhxCfTXgbYMa-74" value="App" style="swimlane;whiteSpace=wrap;startSize=23;" parent="1" vertex="1">
          <mxGeometry x="360" y="20" width="280" height="570" as="geometry" />
        </mxCell>
        <mxCell id="r6qwCy5xgTZqFK5i09CB-12" value="ออกสัญญาเช่าห้อง" style="" vertex="1" parent="SxcsM_80hhxCfTXgbYMa-74">
          <mxGeometry x="85" y="60" width="110" height="50" as="geometry" />
        </mxCell>
        <mxCell id="r6qwCy5xgTZqFK5i09CB-17" value="พิมพ์สัญญา" style="" vertex="1" parent="SxcsM_80hhxCfTXgbYMa-74">
          <mxGeometry x="85" y="140" width="110" height="50" as="geometry" />
        </mxCell>
        <mxCell id="SxcsM_80hhxCfTXgbYMa-93" value="Database" style="swimlane;whiteSpace=wrap" parent="1" vertex="1">
          <mxGeometry x="640" y="20" width="280" height="570" as="geometry" />
        </mxCell>
        <mxCell id="r6qwCy5xgTZqFK5i09CB-15" value="บันทึก" style="" vertex="1" parent="SxcsM_80hhxCfTXgbYMa-93">
          <mxGeometry x="85" y="60" width="110" height="50" as="geometry" />
        </mxCell>
        <mxCell id="SxcsM_80hhxCfTXgbYMa-101" style="edgeStyle=orthogonalEdgeStyle;rounded=0;orthogonalLoop=1;jettySize=auto;html=1;exitX=1;exitY=0.3333333333333333;exitDx=0;exitDy=0;exitPerimeter=0;entryX=0;entryY=0.5;entryDx=0;entryDy=0;" parent="1" source="SxcsM_80hhxCfTXgbYMa-100" edge="1" target="SxcsM_80hhxCfTXgbYMa-103">
          <mxGeometry relative="1" as="geometry">
            <mxPoint x="140" y="105" as="targetPoint" />
          </mxGeometry>
        </mxCell>
        <mxCell id="SxcsM_80hhxCfTXgbYMa-100" value="ลูกค้า" style="shape=umlActor;verticalLabelPosition=bottom;verticalAlign=top;html=1;outlineConnect=0;" parent="1" vertex="1">
          <mxGeometry x="20" y="85" width="30" height="60" as="geometry" />
        </mxCell>
        <mxCell id="r6qwCy5xgTZqFK5i09CB-14" style="edgeStyle=orthogonalEdgeStyle;rounded=0;orthogonalLoop=1;jettySize=auto;html=1;entryX=0;entryY=0.5;entryDx=0;entryDy=0;" edge="1" parent="1" source="r6qwCy5xgTZqFK5i09CB-5" target="r6qwCy5xgTZqFK5i09CB-12">
          <mxGeometry relative="1" as="geometry">
            <Array as="points">
              <mxPoint x="330" y="290" />
              <mxPoint x="330" y="105" />
            </Array>
          </mxGeometry>
        </mxCell>
        <mxCell id="r6qwCy5xgTZqFK5i09CB-16" style="edgeStyle=orthogonalEdgeStyle;rounded=0;orthogonalLoop=1;jettySize=auto;html=1;entryX=0;entryY=0.5;entryDx=0;entryDy=0;" edge="1" parent="1" source="r6qwCy5xgTZqFK5i09CB-12" target="r6qwCy5xgTZqFK5i09CB-15">
          <mxGeometry relative="1" as="geometry" />
        </mxCell>
        <mxCell id="r6qwCy5xgTZqFK5i09CB-20" style="edgeStyle=orthogonalEdgeStyle;rounded=0;orthogonalLoop=1;jettySize=auto;html=1;exitX=0.5;exitY=1;exitDx=0;exitDy=0;entryX=1;entryY=0.5;entryDx=0;entryDy=0;" edge="1" parent="1" source="r6qwCy5xgTZqFK5i09CB-15" target="r6qwCy5xgTZqFK5i09CB-17">
          <mxGeometry relative="1" as="geometry" />
        </mxCell>
        <mxCell id="r6qwCy5xgTZqFK5i09CB-22" style="edgeStyle=orthogonalEdgeStyle;rounded=0;orthogonalLoop=1;jettySize=auto;html=1;exitX=0;exitY=0.5;exitDx=0;exitDy=0;entryX=1;entryY=0.5;entryDx=0;entryDy=0;" edge="1" parent="1" source="r6qwCy5xgTZqFK5i09CB-17" target="r6qwCy5xgTZqFK5i09CB-21">
          <mxGeometry relative="1" as="geometry">
            <Array as="points">
              <mxPoint x="380" y="185" />
              <mxPoint x="380" y="385" />
            </Array>
          </mxGeometry>
        </mxCell>
      </root>
    </mxGraphModel>
  </diagram>
</mxfile>
